<svg xmlns="http://www.w3.org/2000/svg" width="164.651" height="145.207" viewBox="0 0 164.651 145.207">
  <g id="Group_46" data-name="Group 46" transform="translate(-116.228 -86.176)">
    <path id="Path_46" data-name="Path 46" d="M902.452,657.061l19.12-13.523c-6.448-6.282-12.313-15.226-17.922-25.339l-19.12,13.523C892.17,640.4,898.642,648.914,902.452,657.061Z" transform="translate(-760.719 -443.433)" fill="#4f8a8b"/>
    <circle id="Ellipse_7" data-name="Ellipse 7" cx="5.643" cy="5.643" r="5.643" transform="translate(136.085 187.944)" fill="#fff"/>
    <path id="Path_47" data-name="Path 47" d="M615.046,536.554h2.1a.278.278,0,0,1,.278.278v.921a.278.278,0,0,1-.278.278H616.8v1.38h-1.4v-1.38h-.348a.278.278,0,0,1-.278-.278v-.921A.278.278,0,0,1,615.046,536.554Z" transform="translate(-381.081 -384.636)" fill="#e6e6e6"/>
    <path id="Path_48" data-name="Path 48" d="M608.089,548.61a10.79,10.79,0,0,0,1.877-6.4.228.228,0,0,1,.178-.227v-.4h2.217v.393h.031a.227.227,0,0,1,.227.228c0,.005,0,.011,0,.017a9.847,9.847,0,0,0,1.769,6.549.626.626,0,0,1,.114.38l-.242,7.5a.649.649,0,0,1-.644.626H608.6a.649.649,0,0,1-.644-.637l-.093-7.279A1.314,1.314,0,0,1,608.089,548.61Z" transform="translate(-376.226 -388.26)" fill="#4f8a8b"/>
    <path id="Path_49" data-name="Path 49" d="M617.408,537.627a.6.6,0,1,0,1.2,0" transform="translate(-383.006 -385.408)" opacity="0.2"/>
    <rect id="Rectangle_36" data-name="Rectangle 36" width="4.232" height="2.822" transform="translate(232.839 161.794)" fill="#fff"/>
    <path id="Path_50" data-name="Path 50" d="M845.223,641.218h3.929a.521.521,0,0,1,.521.521v1.724a.521.521,0,0,1-.521.521H848.5v2.584h-2.627v-2.584h-.651a.521.521,0,0,1-.521-.521v-1.724a.521.521,0,0,1,.521-.521Z" transform="translate(-677.674 -460.011)" fill="#e6e6e6"/>
    <path id="Path_51" data-name="Path 51" d="M832.2,663.785a20.2,20.2,0,0,0,3.514-11.975.426.426,0,0,1,.333-.425v-.745H840.2v.735h.057a.426.426,0,0,1,.425.426c0,.01,0,.021,0,.031a18.433,18.433,0,0,0,3.311,12.259,1.173,1.173,0,0,1,.212.711l-.454,14.034a1.215,1.215,0,0,1-1.2,1.173h-9.385a1.215,1.215,0,0,1-1.205-1.193l-.175-13.626A2.46,2.46,0,0,1,832.2,663.785Z" transform="translate(-668.587 -466.796)" fill="#4f8a8b"/>
    <path id="Path_52" data-name="Path 52" d="M849.645,643.226a1.124,1.124,0,0,0,2.248,0" transform="translate(-681.277 -461.457)" opacity="0.2"/>
    <path id="Path_53" data-name="Path 53" d="M838.006,714.273h8.169a.839.839,0,0,1,.829.966l-1.234,8.024h-7.088l-1.5-8a.839.839,0,0,1,.824-.993Z" transform="translate(-672.906 -512.622)" fill="#fff"/>
    <path id="Path_54" data-name="Path 54" d="M736.858,677.122h23.419c-1.637-8.852-1.261-19.541,0-31.037H736.858C738.085,657.58,738.452,668.27,736.858,677.122Z" transform="translate(-558.1 -463.516)" fill="#4f8a8b"/>
    <circle id="Ellipse_8" data-name="Ellipse 8" cx="5.643" cy="5.643" r="5.643" transform="translate(184.684 191.598)" fill="#fff"/>
    <path id="Path_55" data-name="Path 55" d="M330.846,297.716l-5.257-.478-3.346-8.125,5.974-3.346Z" transform="translate(-56.299 -181.788)" fill="#ffb8b8"/>
    <path id="Path_56" data-name="Path 56" d="M608.206,475.943h0a2.964,2.964,0,0,1,2.575-4.062l8.163-.487,1.2,4-8.4,2.308A2.964,2.964,0,0,1,608.206,475.943Z" transform="translate(-381.908 -337.71)" fill="#ffb8b8"/>
    <path id="Path_57" data-name="Path 57" d="M475.657,422.156l.09-7.5,18.131-2.893,13.968-16.02a4.572,4.572,0,0,1,5.959-.815h0a4.572,4.572,0,0,1,.8,6.974l-11.524,14.181Z" transform="translate(-240.594 -282.1)" fill="#fbd46d"/>
    <path id="Path_58" data-name="Path 58" d="M504.351,587.775h-4.779l-11.855-53.6-12.281,16.557-7.169,35.846h-4.54l.956-38.474L480.693,507h15.772c4.31,7.8,7.691,15.841,3.824,24.136Z" transform="translate(-225.02 -363.354)" fill="#222831"/>
    <path id="Path_59" data-name="Path 59" d="M596.942,793.059a1.247,1.247,0,0,1-.973,1.6l-11.7,2.076a1.924,1.924,0,0,1-2.183-1.319h0a1.912,1.912,0,0,1,.935-2.274,17.882,17.882,0,0,0,6.45-5.607c1.285,1.2,2.722,1.084,4.248.2l1.618.2Z" transform="translate(-351.487 -565.383)" fill="#222831"/>
    <path id="Path_60" data-name="Path 60" d="M470.556,793.059a1.247,1.247,0,0,1-.973,1.6l-11.7,2.076a1.924,1.924,0,0,1-2.183-1.319h0a1.912,1.912,0,0,1,.935-2.274,17.882,17.882,0,0,0,6.45-5.607c1.285,1.2,2.722,1.084,4.248.2l1.618.2Z" transform="translate(-189.734 -565.383)" fill="#222831"/>
    <circle id="Ellipse_9" data-name="Ellipse 9" cx="6.691" cy="6.691" r="6.691" transform="translate(259.133 96.93)" fill="#ffb8b8"/>
    <path id="Path_61" data-name="Path 61" d="M486.4,423.925l-17.445-.478,5.123-16.124c-3.184-5.1.02-10.2,4.555-15.3l3.585-2.39,5.735-.478h0a14.08,14.08,0,0,1,3.792,9.808A63.184,63.184,0,0,1,486.4,423.925Z" transform="translate(-214.605 -278.484)" fill="#fbd46d"/>
    <path id="Path_62" data-name="Path 62" d="M593.711,530.558h0a2.964,2.964,0,0,1,.769-4.748l7.313-3.659,2.677,3.2-6.818,5.427A2.964,2.964,0,0,1,593.711,530.558Z" transform="translate(-361.992 -374.263)" fill="#ffb8b8"/>
    <path id="Path_63" data-name="Path 63" d="M502.293,442.63l-2.868-6.93,15.531-9.793,6.54-20.223a4.572,4.572,0,0,1,5.158-3.093h0a4.572,4.572,0,0,1,3.476,6.1l-5.016,17.571Z" transform="translate(-261.799 -288.108)" fill="#fbd46d"/>
    <path id="Path_64" data-name="Path 64" d="M488.036,334.053a12.67,12.67,0,0,1-3.824,8.364c-1.435,1.163-3.331,1.114-4.062-.478a18.939,18.939,0,0,0-7.886-7.886c-6.066-3.219,2.151-8.726,7.886-7.886C484.459,326.8,488.036,329.7,488.036,334.053Z" transform="translate(-211.219 -233.06)" fill="#222831"/>
    <circle id="Ellipse_10" data-name="Ellipse 10" cx="4.779" cy="4.779" r="4.779" transform="translate(267.975 87.849)" fill="#222831"/>
    <path id="Path_65" data-name="Path 65" d="M489.207,306.4a4.776,4.776,0,0,1,4.421-4.761c-.119-.009-.237-.018-.358-.018a4.779,4.779,0,0,0,0,9.559c.121,0,.24-.009.358-.018A4.776,4.776,0,0,1,489.207,306.4Z" transform="translate(-221.949 -215.447)" fill="#222831"/>
    <ellipse id="Ellipse_11" data-name="Ellipse 11" cx="1.075" cy="1.434" rx="1.075" ry="1.434" transform="translate(264.629 103.143)" fill="#ffb8b8"/>
    <path id="Path_66" data-name="Path 66" d="M467.529,484.572h74.4l15.755-74.479H571.13v-3.342H554.976L539.221,481.23H467.529Z" transform="translate(-337.24 -268.917)" fill="#222831"/>
    <circle id="Ellipse_12" data-name="Ellipse 12" cx="7.161" cy="7.161" r="7.161" transform="translate(186.625 214.939)" fill="#222831"/>
    <circle id="Ellipse_13" data-name="Ellipse 13" cx="7.161" cy="7.161" r="7.161" transform="translate(133.154 214.939)" fill="#222831"/>
    <path id="Path_67" data-name="Path 67" d="M700,596.263h72.388l12.772-63.118H688.016a3.432,3.432,0,0,0-3.391,3.964l11.986,56.254a3.415,3.415,0,0,0,3.39,2.9Zm71.6-.955H700a2.464,2.464,0,0,1-2.446-2.092l-11.986-56.254a2.477,2.477,0,0,1,2.447-2.861H784Z" transform="translate(-568.356 -382.181)" fill="#222831"/>
    <path id="Path_68" data-name="Path 68" d="M595.565,517.613l8.364-62.36-.942-.156-8.364,62.36Z" transform="translate(-405.604 -303.733)" fill="#222831"/>
    <path id="Path_69" data-name="Path 69" d="M795.463,517.138l.943-.153-8.12-61.883-.943.153Z" transform="translate(-652.011 -303.737)" fill="#222831"/>
    <rect id="Rectangle_37" data-name="Rectangle 37" width="0.955" height="62.36" transform="translate(165.611 151.442)" fill="#222831"/>
    <rect id="Rectangle_38" data-name="Rectangle 38" width="0.955" height="92.429" transform="matrix(-0.002, -1, 1, -0.002, 119.501, 169.329)" fill="#222831"/>
    <rect id="Rectangle_39" data-name="Rectangle 39" width="81.202" height="0.955" transform="matrix(-1, -0.007, 0.007, -1, 207.214, 199.158)" fill="#222831"/>
    <ellipse id="Ellipse_14" data-name="Ellipse 14" cx="5.252" cy="2.865" rx="5.252" ry="2.865" transform="translate(227.206 136.164)" fill="#222831"/>
  </g>
</svg>
